<?xml version="1.0" encoding="utf-8"?><svg version="1.1" id="Layer_1" xmlns="http://www.w3.org/2000/svg" xmlns:xlink="http://www.w3.org/1999/xlink" x="0px" y="0px"	 viewBox="0 0 32 32" style="enable-background:new 0 0 32 32;" xml:space="preserve"><style type="text/css">	.st0{fill:#333333;}	.st1{fill:#FFFFFF;}</style><g>	<circle class="st0" cx="16" cy="16" r="16"/></g><g>	<path class="st1" d="M21.6,19.4c0,1.8-1.7,3.2-3.8,3.2c-2.1,0-3.7-1.4-3.8-3.2V15h-3.3v4.4h0c0,0,0,0,0,0v0h0		c0,3.6,3.2,6.4,7.1,6.4c3.9,0,7.1-2.9,7.1-6.5H21.6z"/>	<polygon class="st1" points="7,6.1 7,9.3 10.7,9.3 10.7,13 14,13 14,6.1 	"/>	<g>		<path class="st1" d="M23.2,9.1C22.1,9,21,9.8,20.9,10.9c-0.1,1.1,0.7,2.1,1.8,2.2c0,0,0.1,0,0.1,0c0,0-0.2,0.6-0.9,0.9			c1.4,0.2,2.9-1.2,3.1-2.6C25.1,10.3,24.3,9.3,23.2,9.1z"/>	</g></g></svg>
